<svg width="1024" height="1024" xmlns="http://www.w3.org/2000/svg" style="vector-effect: non-scaling-stroke;" stroke="null">
 <!-- Created with Method Draw - http://github.com/duopixel/Method-Draw/ -->

 <g stroke="null">
  <title>background</title>
  <rect stroke="null" fill="none" id="canvas_background" height="2562.09318" width="2562.09318" y="-1" x="-1"/>
  <g stroke="null" display="none" id="canvasGrid">
   <rect stroke="null" fill="url(#gridpattern)" stroke-width="0" y="0" x="0" height="100%" width="100%" id="svg_1"/>
  </g>
 </g>
 <g stroke="null">
  <title>Layer 1</title>
  <g stroke="null" id="reddit">
   <path stroke="null" id="reddit_path" d="m1023.56248,520.09153c0,-62.03484 -50.34711,-112.38192 -112.38192,-112.38192c-30.56787,0 -57.53954,11.68771 -77.31874,31.46693c-76.41971,-54.84241 -182.50826,-90.80462 -299.38544,-95.29988l51.24613,-240.04778l166.32527,35.06314c1.79809,42.2556 36.86127,76.41971 80.01591,76.41971c44.0537,0 80.01594,-35.96219 80.01594,-80.01591c0,-44.05375 -35.96224,-80.01594 -80.01594,-80.01594c-31.46693,0 -58.43857,17.9811 -71.02538,44.95277l-186.10447,-39.55844c-5.39433,-0.89907 -10.78867,0 -15.28394,2.69717c-4.49527,2.69717 -7.19244,7.19244 -8.99053,12.58677l-56.64052,267.91852c-119.57435,3.59623 -226.56194,38.65937 -303.88071,95.29988c-19.77921,-18.88017 -47.64994,-31.46693 -77.31874,-31.46693c-62.03484,0 -112.38192,50.34708 -112.38192,112.38192c0,45.85181 26.97164,84.51118 66.53007,102.49231c-1.79809,10.78863 -2.69717,22.47637 -2.69717,34.1641c0,172.61863 200.48937,311.97219 448.62865,311.97219s448.62865,-139.35357 448.62865,-311.97219c0,-11.68774 -0.89907,-22.4764 -2.69717,-33.26508c36.86127,-17.9811 64.73197,-57.53954 64.73197,-103.39134l0.00001,0l-0.00002,0l0,-0.00001z" fill="#1ed760"/>
  </g>
  <g stroke="null" id="asdf" fill="none">
   <path stroke="null" id="asdff" d="m705.11634,869.94793c-7.9037,12.96207 -24.87032,17.07199 -37.83238,9.1156c-103.60171,-63.28229 -234.02329,-77.61433 -387.61854,-42.52191c-14.80099,3.37224 -29.55458,-5.90143 -32.92681,-20.70769c-3.38805,-14.80626 5.84874,-29.55984 20.68662,-32.93208c168.08536,-38.41726 312.26465,-21.86691 428.57551,49.21371c12.96207,7.95638 17.07199,24.87032 9.1156,37.83238l0,-0.00001zm54.00862,-120.16259c-9.95866,16.20258 -31.14058,21.31365 -47.31682,11.35499c-118.6082,-72.91954 -299.40797,-94.03296 -439.69866,-51.44781c-18.19433,5.49571 -37.41085,-4.75803 -42.9329,-22.92073c-5.4799,-18.19433 4.77911,-37.37397 22.94181,-42.90655c160.25016,-48.62357 359.47082,-25.07054 495.67792,58.62964c16.17623,9.95866 21.2873,31.14058 11.32864,47.29573l0,-0.00526l0.00001,-0.00001zm4.63683,-125.11031c-142.21392,-84.46948 -376.84842,-92.23618 -512.62873,-51.02629c-21.80367,6.61276 -44.86141,-5.69594 -51.4689,-27.49961c-6.60749,-21.81422 5.69066,-44.85613 27.51014,-51.48471c155.86624,-47.31682 414.97588,-38.17487 578.70893,59.02484c19.65387,11.63952 26.08221,36.96824 14.43742,56.55361c-11.59209,19.61171 -36.98933,26.07694 -56.5378,14.43216l-0.02108,0l0.00001,0z" fill="#000000"/>
  </g>
 </g>
</svg>
